/* XPM */
static char *_08f722f2dc144d8bf74b51d941bb325RkGrnEVu4YepOkw0[] = {
/* columns rows colors chars-per-pixel */
"32 32 196 2 ",
"   c None",
".  c #633551",
"X  c #653653",
"o  c #683755",
"O  c #6B3957",
"+  c #6B3958",
"@  c #6C3A58",
"#  c #6D3B59",
"$  c #703E57",
"%  c #713E59",
"&  c #733E5D",
"*  c #764251",
"=  c #7B4555",
"-  c #7D4954",
";  c #74405B",
":  c #76415D",
">  c #79435F",
",  c #7A445F",
"<  c #7F4663",
"1  c #7B4264",
"2  c #804958",
"3  c #814F58",
"4  c #854C5B",
"5  c #874F5B",
"6  c #834B5E",
"7  c #864B5C",
"8  c #8B565F",
"9  c #824A63",
"0  c #844965",
"q  c #854C65",
"w  c #884E63",
"e  c #84476B",
"r  c #854A69",
"t  c #894A6F",
"y  c #8C4D6E",
"u  c #8E4F6F",
"i  c #8E5161",
"p  c #8A5065",
"a  c #8B5067",
"s  c #8C5167",
"d  c #8D5268",
"f  c #8E5269",
"g  c #8E5369",
"h  c #905063",
"j  c #905463",
"k  c #935663",
"l  c #905164",
"z  c #935364",
"x  c #935265",
"c  c #975667",
"v  c #945B65",
"b  c #975866",
"n  c #965B66",
"m  c #985967",
"M  c #94566C",
"N  c #97576F",
"B  c #9A5768",
"V  c #985A69",
"C  c #9A586A",
"Z  c #9A5B6B",
"A  c #9C5A68",
"S  c #9C5B69",
"D  c #9F5D6B",
"F  c #9C5E6A",
"G  c #99586E",
"H  c #995A6E",
"J  c #9A5B6F",
"K  c #9D5A6C",
"L  c #9E5E6E",
"P  c #8A4A70",
"I  c #904F71",
"U  c #925172",
"Y  c #925073",
"T  c #9A5772",
"R  c #9C5974",
"E  c #9F5B75",
"W  c #9F5C74",
"Q  c #A05D6C",
"!  c #A15E6F",
"~  c #A45E70",
"^  c #A05D76",
"/  c #9B606A",
"(  c #9D636C",
")  c #9F626D",
"_  c #9E656D",
"`  c #A0606E",
"'  c #A2606F",
"]  c #A4616E",
"[  c #A4606F",
"{  c #A5616F",
"}  c #A06072",
"|  c #A16072",
" . c #A66473",
".. c #A66672",
"X. c #A76772",
"o. c #A76575",
"O. c #AB6672",
"+. c #AB6773",
"@. c #A96474",
"#. c #A86575",
"$. c #A96575",
"%. c #AB6475",
"&. c #A96675",
"*. c #AA6476",
"=. c #AB6476",
"-. c #AA6677",
";. c #AB6677",
":. c #A66C73",
">. c #AB6977",
",. c #AC6874",
"<. c #AE6B77",
"1. c #AA6C75",
"2. c #AD6978",
"3. c #AE6878",
"4. c #AE6979",
"5. c #AE6A78",
"6. c #AF6C79",
"7. c #AE6D79",
"8. c #B16B76",
"9. c #B16C77",
"0. c #B26C77",
"q. c #B06979",
"w. c #B16A7A",
"e. c #B36D78",
"r. c #B46C79",
"t. c #B56C79",
"y. c #B56F7B",
"u. c #B66E7B",
"i. c #B66F7B",
"p. c #B76F7B",
"a. c #AE7379",
"s. c #AF747A",
"d. c #B2737B",
"f. c #B5707A",
"g. c #B7707A",
"h. c #B7707B",
"j. c #B8707B",
"k. c #BA717B",
"l. c #B9727B",
"z. c #B8717C",
"x. c #B8717D",
"c. c #BA717C",
"v. c #BA727C",
"b. c #BB737C",
"n. c #BA737D",
"m. c #BB737D",
"M. c #BB737E",
"N. c #BC737D",
"B. c #BC747D",
"V. c #BD757D",
"C. c #BC747E",
"Z. c #BD747E",
"A. c #BC757E",
"S. c #BD757E",
"D. c #BD757F",
"F. c #BE757E",
"G. c #BE767F",
"H. c #BE777F",
"J. c #B87480",
"K. c #B87581",
"L. c #BF7680",
"P. c #B77B80",
"I. c #BB7881",
"U. c #BD7880",
"Y. c #BF7982",
"T. c #BE7983",
"R. c #BE7B85",
"E. c #BB7F84",
"W. c #C17A82",
"Q. c #C27B83",
"!. c #BC8185",
"~. c #BD8185",
"^. c #BF8186",
"/. c #C18188",
"(. c #C78388",
"). c #C78389",
"_. c #C18489",
"`. c #C6848B",
"'. c #C9848A",
"]. c #C9888C",
"[. c #CC8A8F",
"{. c #C88C8E",
"}. c #CF8F93",
"|. c #D08E91",
" X c #CD9494",
".X c #D19092",
"XX c #D19796",
"oX c #D49596",
"OX c #D59999",
"+X c #D79898",
"@X c #D49C9A",
"#X c #D69C9B",
"$X c #DA9C9B",
"%X c #DDA29F",
"&X c #DEA3A0",
"*X c #DFA7A3",
/* pixels */
"                                                                ",
"                                                                ",
"                                                                ",
"                                                                ",
"                                                                ",
"                                                                ",
"                                                                ",
"                                                                ",
"                                                                ",
"                  A A k 5 -         x h 7 = *                   ",
"                / ..X.) v 8 3     x m c i 7 2                   ",
"              ) s.!.~.P.s.:._ n m Q { ! ! n z 6                 ",
"            F 1.~. X#XXX{.~.d...{ O.8.e.e.&.L w $ .             ",
"            ) 6._.#X*X%XoX].I.<.O.8.k.A.A.p...w % X             ",
"            ' 6./.OX&X$X|.(.H.f.e.k.A.A.L.M.&.s ; o             ",
"            ! 4.R.}.OX|.'.W.A.n.k.A.A.A.A.x.&.d : O             ",
"            K &.K.(.}.'.Q.F.N.N.B.A.N.M.p.4.} a : +             ",
"              Z -.J.L.L.H.A.k.M.k.N.A.i.&.H d 9                 ",
"                V o.q.i.b.b.j.t.e.x.k.>.H q ,                   ",
"                  H ~ *.q.e.4.;.*.-.-.~ d > #                   ",
"                    l H E W W W T T M d 9                       ",
"                      q u Y Y P t r < ,                         ",
"                        r P P P r 1 & #                         ",
"                                                                ",
"                                                                ",
"                                                                ",
"                                                                ",
"                                                                ",
"                                                                ",
"                                                                ",
"                                                                ",
"                                                                "
};
