/* XPM */
static char *_45eaf40493a4e9be7545c3ca845e8d3ff9mizRTUZLx5rbT[] = {
/* columns rows colors chars-per-pixel */
"32 32 60 1 ",
"  c #C0D470",
". c #8A4E06",
"X c #8B4F06",
"o c #905704",
"O c #9A5B06",
"+ c #9A6601",
"@ c #A16805",
"# c #A16509",
"$ c #AC7005",
"% c #A87902",
"& c #AA7C01",
"* c #AE7810",
"= c #AE8100",
"- c #AF8102",
"; c #B08304",
": c #B58C00",
"> c #B58D00",
", c #B68D00",
"< c #B78E00",
"1 c #B78F00",
"2 c #B88F00",
"3 c #B3830E",
"4 c #B89000",
"5 c #B99000",
"6 c #BD9100",
"7 c #C09500",
"8 c #C49800",
"9 c #CC9801",
"0 c #CC9F00",
"q c #CD9F00",
"w c #D29901",
"e c #D29B02",
"r c #D49D02",
"t c #C5951E",
"y c #D3A001",
"u c #D6A600",
"i c #D8A800",
"p c #D9A900",
"a c #DEAC00",
"s c #DFAD00",
"d c #D8A20F",
"f c #E0AD00",
"g c #E0AF00",
"h c #E5B200",
"j c #E7B400",
"k c #E8B400",
"l c #EAB600",
"z c #EEB800",
"x c #EEB900",
"c c #EFBA00",
"v c #EFBB00",
"b c #D8AA29",
"n c #E3B329",
"m c #E3B82C",
"M c #E7BB34",
"N c #E9BD34",
"B c #F4C212",
"V c #F7CE3B",
"C c #FED236",
"Z c #FBD241",
/* pixels */
"                                ",
"                                ",
"                                ",
"                                ",
"                                ",
"                                ",
"                                ",
"                                ",
"                                ",
"                                ",
"            kvvBCZ              ",
"           yewwdnMm             ",
"          jr$OO#*tNV            ",
"         pf9@XXo+3bNm           ",
"        kaq6-%%&-;3tNZ          ",
"        xf8>11444-+*nC          ",
"        zf8>22224&o#dB          ",
"        zf8>:2>24%XOwv          ",
"        xf8:>2224%XOwv          ",
"        kaq72:>2>-@$ek          ",
"         pfu7>>>>69ey           ",
"          haq8888qhk            ",
"           paffffap             ",
"            kxxxxk              ",
"                                ",
"                                ",
"                                ",
"                                ",
"                                ",
"                                ",
"                                ",
"                                "
};
