/* XPM */
static char *af47f11be200412ad5c2025d500aa2a6lgkFAogL0Q3IXzqt[] = {
/* columns rows colors chars-per-pixel */
"32 32 142 2 ",
"   c #C0D470",
".  c #543638",
"X  c #593E39",
"o  c #66493F",
"O  c #644342",
"+  c #674840",
"@  c #6A4B42",
"#  c #6E5641",
"$  c #7E5D4D",
"%  c #7E5A50",
"&  c #776046",
"*  c #7B6146",
"=  c #815F4F",
"-  c #805D52",
";  c #806147",
":  c #83654B",
">  c #866A4E",
",  c #886A4F",
"<  c #866054",
"1  c #8B6456",
"2  c #896B50",
"3  c #8E6659",
"4  c #8F685A",
"5  c #91695B",
"6  c #8E7353",
"7  c #8E745A",
"8  c #917451",
"9  c #957B53",
"0  c #91775A",
"q  c #99705E",
"w  c #A4755B",
"e  c #A97758",
"r  c #A37D59",
"t  c #AA7A59",
"y  c #A17A66",
"u  c #A08457",
"i  c #AF8657",
"p  c #A18A57",
"a  c #A5825E",
"s  c #AD8159",
"d  c #A68A5C",
"f  c #A8895E",
"g  c #B1855C",
"h  c #B38A5B",
"j  c #AE9350",
"k  c #AC905D",
"l  c #B19653",
"z  c #B79C54",
"x  c #B99A56",
"c  c #B4945F",
"v  c #BC975F",
"b  c #B59B58",
"n  c #BBA353",
"m  c #B7A05D",
"M  c #BFA25C",
"N  c #A58063",
"B  c #AA8560",
"V  c #A78A60",
"C  c #AC8962",
"Z  c #AC896A",
"A  c #B48C69",
"S  c #B59B61",
"D  c #B99A64",
"F  c #B59569",
"G  c #B89468",
"H  c #BB9F6B",
"J  c #B39670",
"K  c #BB9573",
"L  c #B79971",
"P  c #BF9A78",
"I  c #B3A062",
"U  c #BFA661",
"Y  c #C1AA56",
"T  c #C3AB5C",
"R  c #C7B15C",
"E  c #C2966B",
"W  c #C59B6D",
"Q  c #C79E70",
"!  c #C09C79",
"~  c #C5AB65",
"^  c #C8AC64",
"/  c #CAA46E",
"(  c #CAAD6C",
")  c #C7B567",
"_  c #CAB366",
"`  c #CEBA65",
"'  c #CBB76A",
"]  c #CEBE6D",
"[  c #D0BB65",
"{  c #D1BC6A",
"}  c #CBA375",
"|  c #CFAE70",
" . c #CEA678",
".. c #CFA87A",
"X. c #D2AC7F",
"o. c #CFBB74",
"O. c #D2B470",
"+. c #D6BC70",
"@. c #D1C16D",
"#. c #DCCC6F",
"$. c #D4C571",
"%. c #DBC472",
"&. c #DECD73",
"*. c #D6C97C",
"=. c #D8CC79",
"-. c #DFD275",
";. c #E0CF75",
":. c #E3D675",
">. c #E6DA77",
",. c #E6DB79",
"<. c #E9DE7C",
"1. c #EBE17A",
"2. c #D5AF83",
"3. c #CEBD86",
"4. c #D6B182",
"5. c #D8B486",
"6. c #DAB68A",
"7. c #DAB688",
"8. c #D1C282",
"9. c #D2C681",
"0. c #D1C085",
"q. c #D9CE82",
"w. c #D4C488",
"e. c #DBCD88",
"r. c #E3DB81",
"t. c #E7DF85",
"y. c #E2D988",
"u. c #E7DF8B",
"i. c #E4DB8C",
"p. c #EBE381",
"a. c #EBE382",
"s. c #EEE780",
"d. c #E8E087",
"f. c #EDE786",
"g. c #EDE88F",
"h. c #EEE98E",
"j. c #F1ED94",
"k. c #F1ED95",
"l. c #F1EE95",
"z. c #F2EE95",
"x. c #F2EF95",
"c. c #F2EF96",
/* pixels */
"                                                                ",
"                                                                ",
"                                                                ",
"                                                                ",
"                                                                ",
"            O @ X                           O + X               ",
"          o 8 u 9 :                       @ 8 u 9 *             ",
"          6 S { _ d $ % - - - - - - - - - 2 S ] _ p #           ",
"      @ 9 ) &.:.&.( A K ! ! ! ! ! ! ! ! G G { :.:.{ I &         ",
"      $ d :.1.:.%.| Q  .2.6.6.6.6.6.4.2. .Q O.:.,.>.@.> .       ",
"      4 F :.<.;.| W W Q ..4.6.6.7.4.4.} Q W / O.>.,.@.6 O       ",
"      5 G :.<.&./ H W Q } } ........} Q E W W O.:.1.$.8 O       ",
"      5 F :.1.;./ E W E W Q Q E W W W W W E W | :.1.@.6 O       ",
"      5 F :.1.&./ E W W W W W W W W W W W W Q O.:.<.$.6 O       ",
"      5 L d.s.:.%.+.+.+.+.+.+.+.+.+.+.+.+.+.+.%.,.p.q.0 O       ",
"      5 J y.f.p.<.<.<.<.<.<.<.<.<.<.<.<.<.<.p.1.p.t.9.7 O       ",
"      3 B ' r.z.j.k.j.j.j.j.k.k.k.k.z.z.j.z.z.j.g.=.n : O       ",
"      1 9 n { *.3.3.3.3.3.w.i.g.u.e.3.3.3.3.3.8.*._ j * O       ",
"      1 r n n b N y y y y Z +.,.+.H y y y y y f z n l : O       ",
"      3 r n n l e w y w w B ( #.{ D y w w w w s z n l : O       ",
"      3 r Y Y x t w e e t t D ^ ^ c e e e e e i n Y b > O       ",
"      1 f _ T x s t t t t t h h h t t t t e t h n R U 2 O       ",
"      1 C ' ` T s e e e e e t t t t t e e e t h ^ [ ~ 2 O       ",
"      1 a ~ ` _ h s g g g g g g g g g g g g g D _ ` S ,         ",
"        $ B ~ { _ ^ ^ ^ ^ ^ ^ ^ ^ ^ ^ ^ ^ ^ ^ _ ] c >           ",
"          : V D D D G D G S D D D D D D D D D D k 8 o           ",
"            < q q q q q q q q q q q q q q q q 5 $ @             ",
"                                                                ",
"                                                                ",
"                                                                ",
"                                                                ",
"                                                                "
};
