/* XPM */
static char *_f2a5f10680d4efdbc31ef368c57077eKTFVQ7SJHomPHPmW[] = {
/* columns rows colors chars-per-pixel */
"32 32 34 1 ",
"  c #C0D470",
". c #BFD470",
"X c #BFD370",
"o c #BED36F",
"O c #BDD26F",
"+ c #BED26F",
"@ c #BCD16F",
"# c #BBD16E",
"$ c #BAD06E",
"% c #BCD16E",
"& c #B9D06D",
"* c #B6CE6C",
"= c #B5CD6B",
"- c #B8CF6C",
"; c #B7CE6C",
": c #BAD16E",
"> c #BFD36F",
", c #B8CF6D",
"< c #B4CC6B",
"1 c #B2CB6A",
"2 c #B3CB6A",
"3 c #B4CC6A",
"4 c #BAD06D",
"5 c #BBD06E",
"6 c #B3CC6A",
"7 c #B6CE6B",
"8 c #BCD26E",
"9 c #B8CE6C",
"0 c #C1D470",
"q c #BCD26F",
"w c #B6CD6B",
"e c #B9CF6D",
"r c #B4CD6B",
"t c white",
/* pixels */
"                                ",
"                                ",
"                                ",
"                   ... ..       ",
"                 XooOoooOo      ",
"                .+@#$#%##O.     ",
"                X%&*=*-;;:X     ",
"                >%,<1233=4>     ",
"                X+5;<267&8.     ",
"                  o#9==&o       ",
"                   +%4&8 0      ",
"                   .X>>.        ",
"                                ",
"                                ",
"                                ",
"                                ",
"                                ",
"                                ",
"     .... ...                   ",
"    Xo+OoooOo.                  ",
"    oq#$#%#:8X                  ",
"   XO4;=w;;*&o                  ",
"   X%e=1133r,o                  ",
"    o%9<66=e8X                  ",
"     X%ewr-o                    ",
"      o%4&% 0                   ",
"       .X>.                     ",
"                                ",
"                                ",
"                                ",
"                                ",
"                                "
};
