/* XPM */
static char *fa3619d04cec4be1dff03341b5719c472nVKxBMbb5s1fRDq[] = {
/* columns rows colors chars-per-pixel */
"32 32 183 2 ",
"   c None",
".  c #272047",
"X  c #2C2446",
"o  c #332C4D",
"O  c #3B3447",
"+  c #2F2852",
"@  c #302852",
"#  c #362D5C",
"$  c #302653",
"%  c #3B3353",
"&  c #3E3951",
"*  c #453B53",
"=  c #433C5A",
"-  c #483D53",
";  c #403661",
":  c #453B6A",
">  c #483D6F",
",  c #474052",
"<  c #4A435A",
"1  c #494355",
"2  c #4A4463",
"3  c #4F4866",
"4  c #4D436D",
"5  c #534A64",
"6  c #50476C",
"7  c #564E6E",
"8  c #584C66",
"9  c #585260",
"0  c #5E5866",
"q  c #58516D",
"w  c #5F596C",
"e  c #584F72",
"r  c #584F79",
"t  c #564B78",
"y  c #595072",
"u  c #5E547D",
"i  c #675F71",
"p  c #625A7D",
"a  c #705C7B",
"s  c #6E647B",
"d  c #72627E",
"f  c #70697F",
"g  c #554A80",
"h  c #5E5383",
"j  c #615783",
"k  c #675F84",
"l  c #695F84",
"z  c #665B8A",
"x  c #6A5F90",
"c  c #6E6484",
"v  c #726B83",
"b  c #71678F",
"n  c #756C8C",
"m  c #706281",
"M  c #7A728F",
"N  c #797281",
"B  c #6A6091",
"V  c #766C90",
"C  c #7B72AA",
"Z  c #807789",
"A  c #88778E",
"S  c #817285",
"D  c #817797",
"F  c #857898",
"G  c #9D7D93",
"H  c #8077A9",
"J  c #8579AB",
"K  c #8A7DA3",
"L  c #8E8890",
"P  c #8B8396",
"I  c #948B9D",
"U  c #9B8798",
"Y  c #9D9599",
"T  c #A18C99",
"R  c #A39C9D",
"E  c #8B82A3",
"W  c #8B82AB",
"Q  c #9187A7",
"!  c #978EA1",
"~  c #9284A8",
"^  c #938BAD",
"/  c #988FAA",
"(  c #9B93A3",
")  c #9C93AB",
"_  c #9F99AF",
"`  c #968FB0",
"'  c #9B93B0",
"]  c #A686A1",
"[  c #A295A2",
"{  c #A993A6",
"}  c #A39CA2",
"|  c #A49CA9",
" . c #AF9AA5",
".. c #A39DB2",
"X. c #AEA9A7",
"o. c #AAA3AB",
"O. c #AFA9AF",
"+. c #AAA4A4",
"@. c #B7B1AE",
"#. c #BCB6AF",
"$. c #ABA2B5",
"%. c #B4ADB3",
"&. c #B2A9BE",
"*. c #BCB5B2",
"=. c #BEB9B7",
"-. c #B8B1B8",
";. c #C6BF92",
":. c #CA9FA8",
">. c #CBA4A9",
",. c #D9AAAA",
"<. c #C2BBAF",
"1. c #D6B2AD",
"2. c #C2ACB0",
"3. c #C1BCB1",
"4. c #CBBBB1",
"5. c #C2BDB9",
"6. c #D0BAB8",
"7. c #E7B8AD",
"8. c #E8BEAF",
"9. c #DFD99A",
"0. c #E2DC92",
"q. c #EEE78D",
"w. c #E7E199",
"e. c #ECE698",
"r. c #D2CDA5",
"t. c #D8D3AB",
"y. c #CBC6B5",
"u. c #CEC9B5",
"i. c #C9C5B8",
"p. c #DFC4B2",
"a. c #D4CCB7",
"s. c #DECDB7",
"d. c #D4C3BA",
"f. c #D2CDBA",
"g. c #DCCEBA",
"h. c #DCD0B7",
"j. c #D6D3BA",
"k. c #DAD6B9",
"l. c #DCD9BB",
"z. c #D6D3B7",
"x. c #EDCCB3",
"c. c #EEC3B0",
"v. c #EDD4B6",
"b. c #E2DEB2",
"n. c #E2DDBA",
"m. c #EBDBBC",
"M. c #F6DAB7",
"N. c #F1D7B7",
"B. c #F0ECAE",
"V. c #E5E2BC",
"C. c #E9E5BD",
"Z. c #EDEBBF",
"A. c #E4E2B6",
"S. c #F1EFB1",
"D. c #F3E2BB",
"F. c #F1EFBF",
"G. c #F4F3BF",
"H. c #B7AEC3",
"J. c #BFB7C1",
"K. c #C8BFD3",
"L. c #CBC4C4",
"P. c #D0C9C8",
"I. c #DBD5CA",
"U. c #D9D4C3",
"Y. c #CAC1D2",
"T. c #D0C9D0",
"R. c #DED6DD",
"E. c #DFD8DB",
"W. c #ECDFC0",
"Q. c #E2DEC9",
"!. c #E6DCC2",
"~. c #E2DBDC",
"^. c #E2DCD7",
"/. c #EEE6C3",
"(. c #EEECC4",
"). c #E8E4CF",
"_. c #ECE9C9",
"`. c #F0EEC3",
"'. c #F1E5C2",
"]. c #F3F2C1",
"[. c #E7E1D1",
"{. c #E9E3D3",
"}. c #E1D9E1",
/* pixels */
"                                                                ",
"                                                                ",
"                                                                ",
"                  2 z B r               = z B j                 ",
"                0 M ( ) P w           9 N ( ( I i               ",
"              , Y 4.n.m.u.( w       & L <.n.C.h.[ s             ",
"              - T 1.v.M.h.| V t h g h ( y.m.M.1.{ d             ",
"              * G :.7.x.n.%.` J J J W %.d.x.c.,.] a             ",
"              - U >.8.v.m.I.T.Y.K.K.Y.I.!.v.c.1.] a             ",
"              - T 1.v.C.(.{.~.}.}.}.~.{./.C.M.s.{ d             ",
"              1 R a.F.G.(.{.E.R.R.R.E.[._.].].V.o.v             ",
"              < R z.G.G.`.).^.E.~.R.~.{._.].].V.o.f             ",
"            . 7 } a.Z.F.`._.).[.^.[.[._.(.Z.].A.o.v o           ",
"            # j } u.A.A.Z.`.].].].].].`.Z.A.C.l.o.V >           ",
"            X y } *.#.y.l.F.G.G.G.G.].].A.i.y.y.| n %           ",
"              6 } @.#.i.z.Z.G.G.].G.].].l.#.#.3.| v X           ",
"            # j | u.C.C.Z.].G.G.].].].].Z.C.C.k.o.V :           ",
"            @ e Y 4.!.'.Z.Z.Z.Z.Z.Z.Z.Z.Z.Z.'.g.[ l ;           ",
"              O N  .6.d.f.j.j.j.j.j.k.j.a.d.d.2.A 8             ",
"                - m E W ^ ^ / ) ..' ' ` Q ~ ~ C 5               ",
"                y v Q E C C E P } ) W C C W Q E p               ",
"              = ^ K.U.5...Q } r.9.r.O.^ ) =.U.L.' l             ",
"              & K J.Q.U.j.i.t.0.q.w.t.i.f.l.Q.P.^ p             ",
"                v ( 5.j.V.`.S.e.q.e.B.G.(.z.i.$.M 3             ",
"                  6 b | a.(.C.A.t.l.C.].l.o.D h *               ",
"                    : F -.I.i.X.R +.i.I.K.I u $                 ",
"                      v / H.^ c 6 p E &.$.n <                   ",
"                        q c e       < k p *                     ",
"                          #           @                         ",
"                                                                ",
"                                                                ",
"                                                                "
};
