/* XPM */
static char *wall[] = {
/* columns rows colors chars-per-pixel */
"32 32 62 1 ",
"  c #43403E",
". c #44413F",
"X c #454240",
"o c #454340",
"O c #484543",
"+ c #494644",
"@ c #4B4845",
"# c #4B4946",
"$ c #4D4B49",
"% c #4F4C4B",
"& c #4E4E4D",
"* c #514E4B",
"= c #524F4B",
"- c #485749",
"; c #53504C",
": c #54514D",
"> c #55524F",
", c #575450",
"< c #595652",
"1 c #5A5753",
"2 c #5A5854",
"3 c #5B5855",
"4 c #5C5A57",
"5 c #585759",
"6 c #5D5B58",
"7 c #5D5C59",
"8 c #5F5D5B",
"9 c #5E5A5E",
"0 c #605E5C",
"q c #546555",
"w c #566756",
"e c #576858",
"r c #615E63",
"t c #626261",
"y c #636361",
"u c #646060",
"i c #656161",
"p c #656463",
"a c #676666",
"s c #676867",
"d c #676269",
"f c #686969",
"g c #696A6A",
"h c #6B6B6C",
"j c #6B6C6C",
"k c #6C6C6D",
"l c #6E6D6F",
"z c #607366",
"x c #617568",
"c c #6F6E70",
"v c #706F71",
"b c #707072",
"n c #737174",
"m c #767176",
"M c #787378",
"N c #797479",
"B c #7A777D",
"V c #7D787F",
"C c #7D7980",
"Z c #817C84",
"A c #827C85",
"S c #847E87",
/* pixels */
"774<<;;=#77777iiiiiiii7777gs177#",
"vgg73O #6jbbbmSSSSSSSAbbbbbb7jc5",
"Acgga<#7gjSSSSSSSSSSSSSSSSSAbjSd",
"SAggs<4gjjSSSSSSSSAVSSSSSSSSAnSd",
"AZggs,>agjVSSSSSSABjSSSSSSSSSSSd",
"VBgpt=.>pajVSSSAVBgsVSSASSSSSSSd",
"ppt><OO#<1paBmMmspy1jVVVBMMMMBM9",
"<<>#677764<<<<<<,>11ayppy<<<<<<.",
"iiiabbbbbbiipu773#<<<==,177<<77=",
"ASSSSSSSSSSSSAbbct773+X#0vs70bnd",
"SSSSSSSSSSSSSSSSSAbga,#7bZggnSSd",
"SSSSSSSSSSSSSSAVSAAga<3kSSvmSSSd",
"SSSSSSZSSSSSSABjCSBgt;1jSSSASSSd",
"VVVZAVVVSSAVVBgpjmit;O<gVCCVVVVr",
"piaMmppaMMmpppp<t;,>++>>ppiptai&",
"<<>;>>;;;><<<<<<,+#674##<<<<<<<O",
"64#OOO .X#77777iiiacvgs77777777O",
"bk7773O.#7jbbbmSSSSAAbbbbbbbbbb5",
"AAbggg<#7kmASSSSSSSSSSSSSSSSSSSd",
"SSAbss>3gkSAVVSSSSSSSSSCVVVVCSSd",
"SSABgy;1ajVBjbSSSSASSSAbbgjvmSSd",
"VCBat=.>1pyajVCVCCVVCSSAAbnZASAt",
"ppy>>#O#>,<3ppppppppaMCVCVVVBBB%",
"<<>+<173#11,<<<<<<<<<,iaaiipy=;.",
"7774<0ga77iiii7777773#<,;;;<,+##",
"bbbs0gjbbmASSAbbbbbbci73+ #777i5",
"SSAbgbnSSSSSSSSSSSSSSAvs3#3gjmAd",
"SSSAnSSSSSSSSSSSSSSSSABgs<3gjSSd",
"SSSSSSSSSSSSSSSSSSSABBggg,;ajBSd",
"VVVCSSSSVVVVVVVVCCCBggggt&o>ajCr",
"pppsVVVBppppppppppppayyy= #O>pa&",
"wwwexzzzwwwwwwwwwwwwwwww--wq-ww-"
};
